<?xml version="1.0" encoding="iso-8859-1"?>
<!-- Uploaded to: SVG Repo, www.svgrepo.com, Generator: SVG Repo Mixer Tools -->
<!DOCTYPE svg PUBLIC "-//W3C//DTD SVG 1.1//EN" "http://www.w3.org/Graphics/SVG/1.1/DTD/svg11.dtd">
<svg fill="#000000" version="1.1" id="Capa_1" xmlns="http://www.w3.org/2000/svg" xmlns:xlink="http://www.w3.org/1999/xlink" 
	 width="800px" height="800px" viewBox="0 0 45.963 45.963"
	 xml:space="preserve">
<g>
	<g>
		<path d="M42.468,25.091c-1.104,0-1.996,0.896-1.996,2v1.474c0,2.979-2.42,5.408-5.4,5.412l-20.664,0.035c-0.004,0-0.006,0-0.01,0
			c-1.444,0-2.809-0.561-3.831-1.582c-1.024-1.021-1.595-2.381-1.595-3.828V2.545C8.971,1.123,7.805,0,6.383,0H4.06
			C2.638,0,1.499,1.123,1.499,2.545v7.059c0,1.422,1.139,2.571,2.561,2.571h0.917v16.427c0,2.518,0.985,4.879,2.767,6.656
			c1.777,1.773,4.142,2.748,6.653,2.748c0.005,0,0.011,0,0.016,0l20.662-0.031c5.182-0.01,9.389-4.229,9.389-9.408v-1.475
			C44.464,25.986,43.572,25.091,42.468,25.091z"/>
		<circle cx="14.501" cy="42.813" r="3.15"/>
		<circle cx="34.962" cy="42.813" r="3.15"/>
		<path d="M15.053,32.079h19.39c1.909,0,3.45-1.56,3.45-3.47V17.464c0-1.911-1.541-3.486-3.45-3.486h-3.699V12.46
			c0-1.829-1.479-3.313-3.31-3.313H22.06c-1.829,0-3.299,1.484-3.299,3.313v1.518h-3.708c-1.91,0-3.441,1.575-3.441,3.486v11.146
			C11.613,30.52,13.143,32.079,15.053,32.079z M21.943,23.232l-0.304-1.626c-0.033-0.174,0.005-0.354,0.105-0.5
			s0.255-0.247,0.429-0.279l2.623-0.489c0.361-0.068,0.711,0.171,0.778,0.534l0.304,1.627c0.032,0.174-0.005,0.354-0.105,0.5
			c-0.1,0.146-0.254,0.246-0.428,0.278l-2.623,0.49C22.36,23.834,22.011,23.596,21.943,23.232z M24.824,29.35
			c-0.663,0-1.201-0.537-1.201-1.201s0.539-1.201,1.201-1.201c0.664,0,1.202,0.537,1.202,1.201S25.489,29.35,24.824,29.35z
			 M31.929,17.835c0.588,0,1.066,0.478,1.066,1.066s-0.479,1.066-1.066,1.066s-1.066-0.477-1.066-1.066S31.341,17.835,31.929,17.835
			z M28.673,24.37l1.067-1.265c0.237-0.284,0.659-0.318,0.94-0.08l2.039,1.719c0.135,0.113,0.221,0.277,0.235,0.453
			c0.015,0.178-0.041,0.353-0.155,0.488l-1.065,1.264c-0.238,0.283-0.66,0.318-0.94,0.08l-2.039-1.719
			c-0.136-0.115-0.221-0.277-0.236-0.455C28.503,24.682,28.56,24.505,28.673,24.37z M21.017,12.46c0-0.568,0.475-0.995,1.043-0.995
			h5.375c0.568,0,1.055,0.427,1.055,0.995v1.518h-7.472V12.46z M17.776,18.772c0.006-0.204,0.094-0.397,0.243-0.537
			c0.149-0.139,0.347-0.214,0.551-0.207l1.198,0.039c0.149,0.005,0.281,0.099,0.334,0.239c0.052,0.14,0.016,0.298-0.093,0.4
			l-1.649,1.546c-0.109,0.102-0.269,0.128-0.405,0.067c-0.136-0.061-0.222-0.2-0.217-0.349L17.776,18.772z M18.436,24.79
			c0.84,0,1.521,0.681,1.521,1.521s-0.681,1.521-1.521,1.521c-0.839,0-1.521-0.682-1.521-1.521
			C16.916,25.471,17.597,24.79,18.436,24.79z"/>
	</g>
</g>
</svg>